<mxfile host="app.diagrams.net" modified="2024-06-09T05:26:32.407Z" agent="Mozilla/5.0 (Windows NT 10.0; Win64; x64) AppleWebKit/537.36 (KHTML, like Gecko) Chrome/125.0.0.0 Safari/537.36" etag="uQvK9ld9Mc4C938g9Tw5" version="24.4.13" type="device">
  <diagram name="Страница — 1" id="lGAsu4HKIqdR1Tm_gRYE">
    <mxGraphModel dx="794" dy="462" grid="1" gridSize="10" guides="1" tooltips="1" connect="1" arrows="1" fold="1" page="1" pageScale="1" pageWidth="827" pageHeight="1169" math="0" shadow="0">
      <root>
        <mxCell id="0" />
        <mxCell id="1" parent="0" />
        <mxCell id="qIc2pa0ACMqMWSV20Rh2-4" value="&lt;font style=&quot;font-size: 15px;&quot;&gt;Начало&lt;/font&gt;" style="strokeWidth=2;html=1;shape=mxgraph.flowchart.terminator;whiteSpace=wrap;" vertex="1" parent="1">
          <mxGeometry x="90" y="40" width="140" height="30" as="geometry" />
        </mxCell>
        <mxCell id="qIc2pa0ACMqMWSV20Rh2-5" value="&lt;span style=&quot;font-size: 14px;&quot;&gt;Задать начальное паросочетание&lt;/span&gt;" style="rounded=0;whiteSpace=wrap;html=1;" vertex="1" parent="1">
          <mxGeometry x="90" y="100" width="140" height="50" as="geometry" />
        </mxCell>
        <mxCell id="qIc2pa0ACMqMWSV20Rh2-8" value="&lt;div style=&quot;font-size: 5px;&quot;&gt;&lt;font style=&quot;font-size: 5px;&quot;&gt;&lt;br&gt;&lt;/font&gt;&lt;/div&gt;&lt;font style=&quot;font-size: 14px;&quot;&gt;Внешние вершины альтернирующего дерева (&lt;/font&gt;&lt;font style=&quot;font-size: 11.6667px;&quot;&gt;x&lt;sub&gt;0&lt;/sub&gt;&lt;/font&gt;&lt;font style=&quot;font-size: 14px;&quot;&gt;)&lt;/font&gt;" style="shape=hexagon;perimeter=hexagonPerimeter2;whiteSpace=wrap;html=1;fixedSize=1;" vertex="1" parent="1">
          <mxGeometry x="90" y="410" width="140" height="70" as="geometry" />
        </mxCell>
        <mxCell id="qIc2pa0ACMqMWSV20Rh2-9" value="&lt;span style=&quot;font-size: 14px;&quot;&gt;В графе&amp;nbsp;&lt;/span&gt;&lt;div&gt;&lt;span style=&quot;font-size: 14px;&quot;&gt;больше 2-х экспонированных вершин&lt;/span&gt;&lt;/div&gt;&lt;div style=&quot;font-size: 5px;&quot;&gt;&lt;span style=&quot;&quot;&gt;&lt;br&gt;&lt;/span&gt;&lt;/div&gt;" style="rhombus;whiteSpace=wrap;html=1;" vertex="1" parent="1">
          <mxGeometry x="90" y="180" width="140" height="120" as="geometry" />
        </mxCell>
        <mxCell id="qIc2pa0ACMqMWSV20Rh2-10" value="" style="endArrow=classic;html=1;rounded=0;" edge="1" parent="1" source="qIc2pa0ACMqMWSV20Rh2-9" target="qIc2pa0ACMqMWSV20Rh2-15">
          <mxGeometry width="50" height="50" relative="1" as="geometry">
            <mxPoint x="340" y="300" as="sourcePoint" />
            <mxPoint x="390" y="250" as="targetPoint" />
          </mxGeometry>
        </mxCell>
        <mxCell id="qIc2pa0ACMqMWSV20Rh2-11" value="" style="endArrow=classic;html=1;rounded=0;" edge="1" parent="1" source="qIc2pa0ACMqMWSV20Rh2-5" target="qIc2pa0ACMqMWSV20Rh2-9">
          <mxGeometry width="50" height="50" relative="1" as="geometry">
            <mxPoint x="340" y="300" as="sourcePoint" />
            <mxPoint x="390" y="250" as="targetPoint" />
          </mxGeometry>
        </mxCell>
        <mxCell id="qIc2pa0ACMqMWSV20Rh2-12" value="" style="endArrow=classic;html=1;rounded=0;" edge="1" parent="1" source="qIc2pa0ACMqMWSV20Rh2-4" target="qIc2pa0ACMqMWSV20Rh2-5">
          <mxGeometry width="50" height="50" relative="1" as="geometry">
            <mxPoint x="340" y="300" as="sourcePoint" />
            <mxPoint x="390" y="250" as="targetPoint" />
          </mxGeometry>
        </mxCell>
        <mxCell id="qIc2pa0ACMqMWSV20Rh2-13" value="&lt;font style=&quot;font-size: 12px;&quot;&gt;Да&lt;/font&gt;" style="text;html=1;align=center;verticalAlign=middle;whiteSpace=wrap;rounded=0;" vertex="1" parent="1">
          <mxGeometry x="159" y="297" width="31" height="20" as="geometry" />
        </mxCell>
        <mxCell id="qIc2pa0ACMqMWSV20Rh2-14" value="x&lt;sub&gt;1&lt;/sub&gt; - смежная к x&lt;span style=&quot;font-size: 10px;&quot;&gt;&lt;sub&gt;0&lt;/sub&gt;&lt;/span&gt;&amp;nbsp;вершина" style="rounded=0;whiteSpace=wrap;html=1;" vertex="1" parent="1">
          <mxGeometry x="90" y="510" width="140" height="40" as="geometry" />
        </mxCell>
        <mxCell id="qIc2pa0ACMqMWSV20Rh2-15" value="Взять в качестве корня экспонированную вершину" style="rounded=0;whiteSpace=wrap;html=1;fontSize=12;" vertex="1" parent="1">
          <mxGeometry x="90" y="330" width="140" height="50" as="geometry" />
        </mxCell>
        <mxCell id="qIc2pa0ACMqMWSV20Rh2-16" value="" style="endArrow=classic;html=1;rounded=0;" edge="1" parent="1" source="qIc2pa0ACMqMWSV20Rh2-15" target="qIc2pa0ACMqMWSV20Rh2-8">
          <mxGeometry width="50" height="50" relative="1" as="geometry">
            <mxPoint x="340" y="370" as="sourcePoint" />
            <mxPoint x="390" y="320" as="targetPoint" />
          </mxGeometry>
        </mxCell>
        <mxCell id="qIc2pa0ACMqMWSV20Rh2-17" value="" style="endArrow=classic;html=1;rounded=0;" edge="1" parent="1" source="qIc2pa0ACMqMWSV20Rh2-8" target="qIc2pa0ACMqMWSV20Rh2-14">
          <mxGeometry width="50" height="50" relative="1" as="geometry">
            <mxPoint x="340" y="580" as="sourcePoint" />
            <mxPoint x="390" y="530" as="targetPoint" />
          </mxGeometry>
        </mxCell>
        <mxCell id="qIc2pa0ACMqMWSV20Rh2-18" value="&lt;div style=&quot;&quot;&gt;&lt;span style=&quot;font-size: 14px;&quot;&gt;x&lt;sub&gt;1&lt;/sub&gt; - экспо-&lt;/span&gt;&lt;/div&gt;&lt;div style=&quot;&quot;&gt;&lt;span style=&quot;font-size: 14px;&quot;&gt;ни&lt;/span&gt;&lt;span style=&quot;font-size: 14px; background-color: initial;&quot;&gt;рованная&amp;nbsp;&lt;/span&gt;&lt;/div&gt;&lt;div style=&quot;&quot;&gt;&lt;span style=&quot;font-size: 14px;&quot;&gt;вершин&lt;/span&gt;&lt;span style=&quot;font-size: 14px; background-color: initial;&quot;&gt;а&lt;/span&gt;&lt;/div&gt;" style="rhombus;whiteSpace=wrap;html=1;" vertex="1" parent="1">
          <mxGeometry x="90" y="585" width="140" height="80" as="geometry" />
        </mxCell>
        <mxCell id="qIc2pa0ACMqMWSV20Rh2-19" value="" style="endArrow=classic;html=1;rounded=0;" edge="1" parent="1" source="qIc2pa0ACMqMWSV20Rh2-14" target="qIc2pa0ACMqMWSV20Rh2-18">
          <mxGeometry width="50" height="50" relative="1" as="geometry">
            <mxPoint x="340" y="570" as="sourcePoint" />
            <mxPoint x="390" y="520" as="targetPoint" />
          </mxGeometry>
        </mxCell>
        <mxCell id="qIc2pa0ACMqMWSV20Rh2-21" value="&lt;span style=&quot;font-family: &amp;quot;Times New Roman&amp;quot;, serif;&quot;&gt;&lt;font style=&quot;font-size: 16px;&quot;&gt;Распустить цветки в обратном порядке, выделяя в них паросочетания&lt;/font&gt;&lt;/span&gt;" style="rounded=0;whiteSpace=wrap;html=1;fontSize=14;" vertex="1" parent="1">
          <mxGeometry x="330" y="197.5" width="140.5" height="85" as="geometry" />
        </mxCell>
        <mxCell id="qIc2pa0ACMqMWSV20Rh2-22" value="" style="endArrow=classic;html=1;rounded=0;" edge="1" parent="1" source="qIc2pa0ACMqMWSV20Rh2-9" target="qIc2pa0ACMqMWSV20Rh2-21">
          <mxGeometry width="50" height="50" relative="1" as="geometry">
            <mxPoint x="340" y="350" as="sourcePoint" />
            <mxPoint x="390" y="300" as="targetPoint" />
          </mxGeometry>
        </mxCell>
        <mxCell id="qIc2pa0ACMqMWSV20Rh2-23" value="&lt;font style=&quot;font-size: 15px;&quot;&gt;Конец&lt;/font&gt;" style="strokeWidth=2;html=1;shape=mxgraph.flowchart.terminator;whiteSpace=wrap;" vertex="1" parent="1">
          <mxGeometry x="330" y="310" width="140" height="30" as="geometry" />
        </mxCell>
        <mxCell id="qIc2pa0ACMqMWSV20Rh2-24" value="" style="endArrow=classic;html=1;rounded=0;" edge="1" parent="1" source="qIc2pa0ACMqMWSV20Rh2-21" target="qIc2pa0ACMqMWSV20Rh2-23">
          <mxGeometry width="50" height="50" relative="1" as="geometry">
            <mxPoint x="340" y="340" as="sourcePoint" />
            <mxPoint x="390" y="290" as="targetPoint" />
          </mxGeometry>
        </mxCell>
        <mxCell id="qIc2pa0ACMqMWSV20Rh2-25" value="" style="endArrow=classic;html=1;rounded=0;" edge="1" parent="1" source="qIc2pa0ACMqMWSV20Rh2-18" target="qIc2pa0ACMqMWSV20Rh2-34">
          <mxGeometry width="50" height="50" relative="1" as="geometry">
            <mxPoint x="340" y="670" as="sourcePoint" />
            <mxPoint x="270" y="625" as="targetPoint" />
          </mxGeometry>
        </mxCell>
        <mxCell id="qIc2pa0ACMqMWSV20Rh2-26" value="&lt;div style=&quot;&quot;&gt;&lt;span style=&quot;font-size: 14px;&quot;&gt;x&lt;sub&gt;1&lt;/sub&gt; - внут&lt;/span&gt;&lt;span style=&quot;font-size: 14px; background-color: initial;&quot;&gt;ренняя&lt;/span&gt;&lt;/div&gt;&lt;div style=&quot;&quot;&gt;&lt;span style=&quot;font-size: 14px;&quot;&gt;вершин&lt;/span&gt;&lt;span style=&quot;font-size: 14px; background-color: initial;&quot;&gt;а&lt;/span&gt;&lt;/div&gt;" style="rhombus;whiteSpace=wrap;html=1;" vertex="1" parent="1">
          <mxGeometry x="90" y="700" width="140" height="80" as="geometry" />
        </mxCell>
        <mxCell id="qIc2pa0ACMqMWSV20Rh2-27" value="" style="endArrow=classic;html=1;rounded=0;" edge="1" parent="1" source="qIc2pa0ACMqMWSV20Rh2-18" target="qIc2pa0ACMqMWSV20Rh2-26">
          <mxGeometry width="50" height="50" relative="1" as="geometry">
            <mxPoint x="340" y="680" as="sourcePoint" />
            <mxPoint x="390" y="630" as="targetPoint" />
          </mxGeometry>
        </mxCell>
        <mxCell id="qIc2pa0ACMqMWSV20Rh2-29" value="" style="endArrow=classic;html=1;rounded=0;" edge="1" parent="1" source="qIc2pa0ACMqMWSV20Rh2-26" target="qIc2pa0ACMqMWSV20Rh2-36">
          <mxGeometry width="50" height="50" relative="1" as="geometry">
            <mxPoint x="340" y="810" as="sourcePoint" />
            <mxPoint x="270" y="740" as="targetPoint" />
          </mxGeometry>
        </mxCell>
        <mxCell id="qIc2pa0ACMqMWSV20Rh2-30" value="&lt;div style=&quot;&quot;&gt;&lt;span style=&quot;font-size: 14px;&quot;&gt;x&lt;sub&gt;1&lt;/sub&gt; - не экспо&lt;/span&gt;&lt;span style=&quot;background-color: initial; font-size: 14px;&quot;&gt;ни&lt;/span&gt;&lt;span style=&quot;background-color: initial; font-size: 14px;&quot;&gt;рованная&amp;nbsp;&lt;/span&gt;&lt;/div&gt;&lt;div style=&quot;&quot;&gt;&lt;span style=&quot;font-size: 14px;&quot;&gt;вершин&lt;/span&gt;&lt;span style=&quot;font-size: 14px; background-color: initial;&quot;&gt;а и не принадлежит&lt;/span&gt;&lt;/div&gt;&lt;div style=&quot;&quot;&gt;&lt;span style=&quot;font-size: 14px; background-color: initial;&quot;&gt;дереву&lt;/span&gt;&lt;/div&gt;" style="rhombus;whiteSpace=wrap;html=1;" vertex="1" parent="1">
          <mxGeometry x="90" y="817.5" width="140" height="130" as="geometry" />
        </mxCell>
        <mxCell id="qIc2pa0ACMqMWSV20Rh2-32" value="" style="endArrow=classic;html=1;rounded=0;" edge="1" parent="1" source="qIc2pa0ACMqMWSV20Rh2-30" target="qIc2pa0ACMqMWSV20Rh2-46">
          <mxGeometry width="50" height="50" relative="1" as="geometry">
            <mxPoint x="340" y="790" as="sourcePoint" />
            <mxPoint x="270" y="875" as="targetPoint" />
          </mxGeometry>
        </mxCell>
        <mxCell id="qIc2pa0ACMqMWSV20Rh2-33" value="" style="endArrow=classic;html=1;rounded=0;" edge="1" parent="1" source="qIc2pa0ACMqMWSV20Rh2-26" target="qIc2pa0ACMqMWSV20Rh2-30">
          <mxGeometry width="50" height="50" relative="1" as="geometry">
            <mxPoint x="340" y="790" as="sourcePoint" />
            <mxPoint x="390" y="740" as="targetPoint" />
          </mxGeometry>
        </mxCell>
        <mxCell id="qIc2pa0ACMqMWSV20Rh2-34" value="Найдена аугментальная цепь. Построить новое улучшенное паросочетание" style="rounded=0;whiteSpace=wrap;html=1;fontSize=12;" vertex="1" parent="1">
          <mxGeometry x="270" y="595" width="140" height="60" as="geometry" />
        </mxCell>
        <mxCell id="qIc2pa0ACMqMWSV20Rh2-36" value="&lt;div style=&quot;&quot;&gt;&lt;span style=&quot;font-size: 14px;&quot;&gt;Все внешние вершины просмотренны&lt;/span&gt;&lt;/div&gt;" style="rhombus;whiteSpace=wrap;html=1;" vertex="1" parent="1">
          <mxGeometry x="270" y="680" width="140" height="120" as="geometry" />
        </mxCell>
        <mxCell id="qIc2pa0ACMqMWSV20Rh2-37" value="Удалить текущее альтернирующее дерево" style="rounded=0;whiteSpace=wrap;html=1;fontSize=12;" vertex="1" parent="1">
          <mxGeometry x="450" y="595" width="140" height="60" as="geometry" />
        </mxCell>
        <mxCell id="qIc2pa0ACMqMWSV20Rh2-39" value="" style="endArrow=classic;html=1;rounded=0;" edge="1" parent="1" source="qIc2pa0ACMqMWSV20Rh2-34" target="qIc2pa0ACMqMWSV20Rh2-37">
          <mxGeometry width="50" height="50" relative="1" as="geometry">
            <mxPoint x="340" y="550" as="sourcePoint" />
            <mxPoint x="390" y="500" as="targetPoint" />
          </mxGeometry>
        </mxCell>
        <mxCell id="qIc2pa0ACMqMWSV20Rh2-40" value="" style="endArrow=classic;html=1;rounded=0;" edge="1" parent="1" source="qIc2pa0ACMqMWSV20Rh2-37">
          <mxGeometry width="50" height="50" relative="1" as="geometry">
            <mxPoint x="340" y="550" as="sourcePoint" />
            <mxPoint x="160" y="160" as="targetPoint" />
            <Array as="points">
              <mxPoint x="520" y="160" />
            </Array>
          </mxGeometry>
        </mxCell>
        <mxCell id="qIc2pa0ACMqMWSV20Rh2-41" value="Удалить все вершины альтернирующего дерева и инцидентные им рёбра" style="rounded=0;whiteSpace=wrap;html=1;fontSize=12;" vertex="1" parent="1">
          <mxGeometry x="450" y="710" width="140" height="60" as="geometry" />
        </mxCell>
        <mxCell id="qIc2pa0ACMqMWSV20Rh2-42" value="" style="endArrow=classic;html=1;rounded=0;" edge="1" parent="1" source="qIc2pa0ACMqMWSV20Rh2-36" target="qIc2pa0ACMqMWSV20Rh2-41">
          <mxGeometry width="50" height="50" relative="1" as="geometry">
            <mxPoint x="340" y="700" as="sourcePoint" />
            <mxPoint x="390" y="650" as="targetPoint" />
          </mxGeometry>
        </mxCell>
        <mxCell id="qIc2pa0ACMqMWSV20Rh2-43" value="" style="endArrow=classic;html=1;rounded=0;" edge="1" parent="1" source="qIc2pa0ACMqMWSV20Rh2-41">
          <mxGeometry width="50" height="50" relative="1" as="geometry">
            <mxPoint x="340" y="660" as="sourcePoint" />
            <mxPoint x="520" y="160" as="targetPoint" />
            <Array as="points">
              <mxPoint x="620" y="740" />
              <mxPoint x="620" y="160" />
            </Array>
          </mxGeometry>
        </mxCell>
        <mxCell id="qIc2pa0ACMqMWSV20Rh2-45" value="" style="endArrow=classic;html=1;rounded=0;" edge="1" parent="1" source="qIc2pa0ACMqMWSV20Rh2-36">
          <mxGeometry width="50" height="50" relative="1" as="geometry">
            <mxPoint x="380" y="900" as="sourcePoint" />
            <mxPoint x="430" y="980" as="targetPoint" />
            <Array as="points">
              <mxPoint x="340" y="830" />
              <mxPoint x="430" y="830" />
            </Array>
          </mxGeometry>
        </mxCell>
        <mxCell id="qIc2pa0ACMqMWSV20Rh2-46" value="Добавить к альтернирующему дереву ребро (x&lt;sub&gt;0&lt;/sub&gt;; x&lt;sub&gt;1&lt;/sub&gt;)" style="rounded=0;whiteSpace=wrap;html=1;fontSize=12;" vertex="1" parent="1">
          <mxGeometry x="270" y="852.5" width="140" height="60" as="geometry" />
        </mxCell>
        <mxCell id="qIc2pa0ACMqMWSV20Rh2-47" value="Добавить к альтернирующему дереву ребро (x&lt;span style=&quot;font-size: 10px;&quot;&gt;&lt;sub&gt;1&lt;/sub&gt;&lt;/span&gt;; x&lt;sub&gt;2&lt;/sub&gt;), принадлежащее паросочетанию" style="rounded=0;whiteSpace=wrap;html=1;fontSize=12;" vertex="1" parent="1">
          <mxGeometry x="450" y="845" width="140" height="75" as="geometry" />
        </mxCell>
        <mxCell id="qIc2pa0ACMqMWSV20Rh2-48" value="" style="endArrow=classic;html=1;rounded=0;" edge="1" parent="1" source="qIc2pa0ACMqMWSV20Rh2-46" target="qIc2pa0ACMqMWSV20Rh2-47">
          <mxGeometry width="50" height="50" relative="1" as="geometry">
            <mxPoint x="400" y="890" as="sourcePoint" />
            <mxPoint x="450" y="840" as="targetPoint" />
          </mxGeometry>
        </mxCell>
        <mxCell id="qIc2pa0ACMqMWSV20Rh2-49" value="" style="endArrow=classic;html=1;rounded=0;" edge="1" parent="1" source="qIc2pa0ACMqMWSV20Rh2-30" target="qIc2pa0ACMqMWSV20Rh2-8">
          <mxGeometry width="50" height="50" relative="1" as="geometry">
            <mxPoint x="260" y="980" as="sourcePoint" />
            <mxPoint x="50" y="660" as="targetPoint" />
            <Array as="points">
              <mxPoint x="160" y="980" />
              <mxPoint x="40" y="980" />
              <mxPoint x="40" y="445" />
            </Array>
          </mxGeometry>
        </mxCell>
        <mxCell id="qIc2pa0ACMqMWSV20Rh2-50" value="&lt;div style=&quot;&quot;&gt;&lt;span style=&quot;font-size: 14px;&quot;&gt;x&lt;sub&gt;2&lt;/sub&gt;&amp;nbsp;смежна с внешней&lt;/span&gt;&lt;/div&gt;&lt;div style=&quot;&quot;&gt;&lt;span style=&quot;font-size: 14px;&quot;&gt;вершиной&amp;nbsp;&lt;/span&gt;&lt;/div&gt;" style="rhombus;whiteSpace=wrap;html=1;" vertex="1" parent="1">
          <mxGeometry x="640" y="836.25" width="140" height="92.5" as="geometry" />
        </mxCell>
        <mxCell id="qIc2pa0ACMqMWSV20Rh2-51" value="" style="endArrow=classic;html=1;rounded=0;" edge="1" parent="1" source="qIc2pa0ACMqMWSV20Rh2-47" target="qIc2pa0ACMqMWSV20Rh2-50">
          <mxGeometry width="50" height="50" relative="1" as="geometry">
            <mxPoint x="400" y="1020" as="sourcePoint" />
            <mxPoint x="450" y="970" as="targetPoint" />
          </mxGeometry>
        </mxCell>
        <mxCell id="qIc2pa0ACMqMWSV20Rh2-52" value="" style="endArrow=classic;html=1;rounded=0;" edge="1" parent="1" source="qIc2pa0ACMqMWSV20Rh2-50">
          <mxGeometry width="50" height="50" relative="1" as="geometry">
            <mxPoint x="510" y="910" as="sourcePoint" />
            <mxPoint x="160" y="980" as="targetPoint" />
            <Array as="points">
              <mxPoint x="710" y="980" />
            </Array>
          </mxGeometry>
        </mxCell>
        <mxCell id="qIc2pa0ACMqMWSV20Rh2-53" value="Опознать и срезать найденный цветок" style="rounded=0;whiteSpace=wrap;html=1;fontSize=12;" vertex="1" parent="1">
          <mxGeometry x="640" y="760" width="140" height="50" as="geometry" />
        </mxCell>
        <mxCell id="qIc2pa0ACMqMWSV20Rh2-54" value="" style="endArrow=classic;html=1;rounded=0;" edge="1" parent="1" source="qIc2pa0ACMqMWSV20Rh2-50" target="qIc2pa0ACMqMWSV20Rh2-53">
          <mxGeometry width="50" height="50" relative="1" as="geometry">
            <mxPoint x="480" y="730" as="sourcePoint" />
            <mxPoint x="530" y="680" as="targetPoint" />
          </mxGeometry>
        </mxCell>
        <mxCell id="qIc2pa0ACMqMWSV20Rh2-55" value="" style="endArrow=classic;html=1;rounded=0;" edge="1" parent="1" source="qIc2pa0ACMqMWSV20Rh2-53">
          <mxGeometry width="50" height="50" relative="1" as="geometry">
            <mxPoint x="480" y="730" as="sourcePoint" />
            <mxPoint x="160" y="390" as="targetPoint" />
            <Array as="points">
              <mxPoint x="710" y="390" />
            </Array>
          </mxGeometry>
        </mxCell>
        <mxCell id="qIc2pa0ACMqMWSV20Rh2-56" value="&lt;font style=&quot;font-size: 12px;&quot;&gt;Нет&lt;/font&gt;" style="text;html=1;align=center;verticalAlign=middle;whiteSpace=wrap;rounded=0;" vertex="1" parent="1">
          <mxGeometry x="230" y="220" width="31" height="20" as="geometry" />
        </mxCell>
        <mxCell id="qIc2pa0ACMqMWSV20Rh2-57" value="&lt;font style=&quot;font-size: 12px;&quot;&gt;Да&lt;/font&gt;" style="text;html=1;align=center;verticalAlign=middle;whiteSpace=wrap;rounded=0;" vertex="1" parent="1">
          <mxGeometry x="223" y="863" width="31" height="20" as="geometry" />
        </mxCell>
        <mxCell id="qIc2pa0ACMqMWSV20Rh2-58" value="&lt;font style=&quot;font-size: 12px;&quot;&gt;Да&lt;/font&gt;" style="text;html=1;align=center;verticalAlign=middle;whiteSpace=wrap;rounded=0;" vertex="1" parent="1">
          <mxGeometry x="403" y="720" width="31" height="20" as="geometry" />
        </mxCell>
        <mxCell id="qIc2pa0ACMqMWSV20Rh2-59" value="&lt;font style=&quot;font-size: 12px;&quot;&gt;Да&lt;/font&gt;" style="text;html=1;align=center;verticalAlign=middle;whiteSpace=wrap;rounded=0;" vertex="1" parent="1">
          <mxGeometry x="220" y="721" width="31" height="20" as="geometry" />
        </mxCell>
        <mxCell id="qIc2pa0ACMqMWSV20Rh2-60" value="&lt;font style=&quot;font-size: 12px;&quot;&gt;Да&lt;/font&gt;" style="text;html=1;align=center;verticalAlign=middle;whiteSpace=wrap;rounded=0;" vertex="1" parent="1">
          <mxGeometry x="220" y="605" width="31" height="20" as="geometry" />
        </mxCell>
        <mxCell id="qIc2pa0ACMqMWSV20Rh2-61" value="&lt;font style=&quot;font-size: 12px;&quot;&gt;Да&lt;/font&gt;" style="text;html=1;align=center;verticalAlign=middle;whiteSpace=wrap;rounded=0;" vertex="1" parent="1">
          <mxGeometry x="708" y="820" width="31" height="20" as="geometry" />
        </mxCell>
        <mxCell id="qIc2pa0ACMqMWSV20Rh2-62" value="&lt;font style=&quot;font-size: 12px;&quot;&gt;Нет&lt;/font&gt;" style="text;html=1;align=center;verticalAlign=middle;whiteSpace=wrap;rounded=0;" vertex="1" parent="1">
          <mxGeometry x="158" y="661" width="31" height="20" as="geometry" />
        </mxCell>
        <mxCell id="qIc2pa0ACMqMWSV20Rh2-63" value="&lt;font style=&quot;font-size: 12px;&quot;&gt;Нет&lt;/font&gt;" style="text;html=1;align=center;verticalAlign=middle;whiteSpace=wrap;rounded=0;" vertex="1" parent="1">
          <mxGeometry x="158" y="778" width="31" height="20" as="geometry" />
        </mxCell>
        <mxCell id="qIc2pa0ACMqMWSV20Rh2-64" value="&lt;font style=&quot;font-size: 12px;&quot;&gt;Нет&lt;/font&gt;" style="text;html=1;align=center;verticalAlign=middle;whiteSpace=wrap;rounded=0;" vertex="1" parent="1">
          <mxGeometry x="159" y="943" width="31" height="20" as="geometry" />
        </mxCell>
        <mxCell id="qIc2pa0ACMqMWSV20Rh2-65" value="&lt;font style=&quot;font-size: 12px;&quot;&gt;Нет&lt;/font&gt;" style="text;html=1;align=center;verticalAlign=middle;whiteSpace=wrap;rounded=0;" vertex="1" parent="1">
          <mxGeometry x="710" y="928.75" width="31" height="20" as="geometry" />
        </mxCell>
        <mxCell id="qIc2pa0ACMqMWSV20Rh2-66" value="&lt;font style=&quot;font-size: 12px;&quot;&gt;Нет&lt;/font&gt;" style="text;html=1;align=center;verticalAlign=middle;whiteSpace=wrap;rounded=0;" vertex="1" parent="1">
          <mxGeometry x="340" y="797.5" width="31" height="20" as="geometry" />
        </mxCell>
      </root>
    </mxGraphModel>
  </diagram>
</mxfile>
